<svg width="394" height="80" viewBox="0 0 394 80" fill="none" xmlns="http://www.w3.org/2000/svg">
  <g clip-path="url(#clip0_4_4)">
    <path
      d="M92.08 24.136C90.032 27.656 87.824 31.144 85.456 34.6C83.088 38.056 79.856 42.696 75.76 48.52L69.712 57.064C72.528 56.808 76.208 56.68 80.752 56.68H85.936L87.952 56.584C88.464 56.584 88.88 56.712 89.2 56.968C89.52 57.224 89.744 57.768 89.872 58.6H91.504C91.824 60.52 91.984 62.696 91.984 65.128C91.984 66.408 91.92 68.008 91.792 69.928C91.664 71.784 91.568 73.128 91.504 73.96L91.312 76.168C83.376 75.72 76.08 75.496 69.424 75.496C62 75.496 55.728 75.656 50.608 75.976C50.352 75.336 50.16 74.664 50.032 73.96C49.328 73.96 48.88 73.992 48.688 74.056C47.856 71.944 47.44 69.512 47.44 66.76L47.536 63.976C47.6 63.336 47.632 62.408 47.632 61.192C47.632 60.36 47.568 59.176 47.44 57.64C49.488 52.968 52.016 48.36 55.024 43.816C58.032 39.272 62 33.608 66.928 26.824L69.04 24.04C66.032 23.784 62.736 23.592 59.152 23.464C55.568 23.336 52.56 23.272 50.128 23.272C50 23.016 49.872 22.696 49.744 22.312C49.616 21.928 49.488 21.608 49.36 21.352H48.208C47.568 20.264 47.248 18.408 47.248 15.784C47.248 13.032 47.152 10.984 46.96 9.64C46.768 8.232 46.16 7.016 45.136 5.992C52.112 5.352 58.8 5.032 65.2 5.032C67.76 5.032 71.728 5.096 77.104 5.224C82.736 5.352 87.088 5.41599 90.16 5.41599L90.352 7.336H92.08C92.272 8.808 92.368 10.568 92.368 12.616C92.368 14.984 92.336 16.776 92.272 17.992V17.896C92.208 19.176 92.176 21.064 92.176 23.56L92.08 24.136ZM89.392 16.552C89.52 14.12 89.584 12.296 89.584 11.08C89.584 9.48 89.488 7.912 89.296 6.376C86.416 6.376 82.288 6.312 76.912 6.184L65.008 6.088C62 6.088 58.928 6.12 55.792 6.184C52.656 6.248 49.808 6.43999 47.248 6.75999L47.44 7.144V7.23999C47.824 8.52 48.016 10.408 48.016 12.904V15.016C48.016 17.704 48.272 19.496 48.784 20.392C51.536 20.392 55.408 20.52 60.4 20.776C65.392 21.032 69.232 21.32 71.92 21.64L67.312 28.072C62.768 34.344 58.992 39.752 55.984 44.296C52.976 48.84 50.448 53.32 48.4 57.736C48.464 58.44 48.496 59.496 48.496 60.904L48.4 66.568C48.4 69.192 48.688 71.368 49.264 73.096C56.112 72.776 62.192 72.616 67.504 72.616C74.8 72.616 81.808 72.808 88.528 73.192V73C88.848 69.672 89.008 66.44 89.008 63.304C89.008 61.32 88.912 59.432 88.72 57.64V57.352C86.608 57.48 84.816 57.544 83.344 57.544C81.936 57.544 80.752 57.576 79.792 57.64C77.488 57.64 75.12 57.704 72.688 57.832C70.256 57.96 67.536 58.216 64.528 58.6L64.624 58.504C67.184 54.536 70.48 49.736 74.512 44.104C81.232 34.504 86.16 27.048 89.296 21.736V21.64L89.392 16.552ZM117.581 72.616C114.189 74.472 110.829 75.4 107.501 75.4C105.453 75.4 103.405 75.048 101.357 74.344C99.3088 73.704 97.9328 72.68 97.2288 71.272C95.8848 70.184 94.9248 68.328 94.3488 65.704C93.8368 63.08 93.5808 59.208 93.5808 54.088C93.5808 51.592 93.6448 47.848 93.7728 42.856C93.9008 37.992 93.9648 34.44 93.9648 32.2C93.9648 29.64 93.9008 27.016 93.7728 24.328C96.0128 24.008 98.6368 23.848 101.645 23.848H107.597C107.597 24.68 107.629 25.32 107.693 25.768H109.517C109.709 27.752 109.805 31.624 109.805 37.384V42.184C109.805 45.896 109.869 48.776 109.997 50.824C110.125 52.808 110.509 54.568 111.149 56.104C112.045 56.232 112.685 56.296 113.069 56.296C114.861 56.296 116.141 55.72 116.909 54.568C117.741 53.416 118.157 51.272 118.157 48.136C118.157 46.6 118.093 44.168 117.965 40.84C117.773 38.408 117.677 35.912 117.677 33.352C117.677 30.088 117.837 27.464 118.157 25.48V24.52C120.013 24.008 121.837 23.752 123.629 23.752L128.141 23.848H129.197C130.157 23.848 131.085 23.784 131.981 23.656V25.768L133.901 25.576L133.997 43.72C134.125 51.784 134.189 57.896 134.189 62.056C134.189 65.448 134.125 70.024 133.997 75.784C130.925 75.592 129.485 75.496 129.677 75.496C129.101 75.496 128.205 75.592 126.989 75.784C125.773 75.976 124.205 76.072 122.285 76.072C121.261 76.072 120.525 75.944 120.077 75.688C119.693 75.432 119.501 74.92 119.501 74.152C118.413 74.088 117.805 73.704 117.677 73L117.581 72.616ZM119.693 73.288C121.549 73.288 123.597 73.128 125.837 72.808C126.861 72.68 127.501 72.616 127.757 72.616C127.949 72.616 129.069 72.68 131.117 72.808C131.245 66.152 131.309 61.288 131.309 58.216C131.309 54.312 131.245 48.648 131.117 41.224L131.021 24.712C130.253 24.776 129.229 24.808 127.949 24.808L123.245 24.712C121.965 24.712 120.589 24.904 119.117 25.288V25.672C118.797 27.656 118.637 30.088 118.637 32.968C118.637 34.568 118.701 37.032 118.829 40.36C119.021 42.856 119.117 45.352 119.117 47.848C119.117 51.432 118.605 53.896 117.581 55.24C116.621 56.584 115.117 57.256 113.069 57.256C111.277 57.256 109.965 56.808 109.133 55.912C108.301 54.952 107.789 53.864 107.597 52.648C107.405 51.432 107.245 49.576 107.117 47.08C106.989 46.12 106.925 44.584 106.925 42.472V39.208V32.008V28.936C106.925 27.016 106.861 25.64 106.733 24.808L101.165 24.712C98.8608 24.712 96.7168 24.872 94.7328 25.192C94.7968 26.408 94.8288 28.424 94.8288 31.24C94.8288 33.416 94.7648 37.064 94.6367 42.184C94.5088 47.304 94.4448 51.144 94.4448 53.704C94.4448 62.984 95.2128 68.264 96.7488 69.544C98.9248 71.528 101.869 72.52 105.581 72.52C107.949 72.52 109.965 72.168 111.629 71.464C113.293 70.76 115.565 69.544 118.445 67.816L118.349 70.12C118.349 72.232 118.797 73.288 119.693 73.288ZM178.656 42.664C176.416 43.048 173.952 43.24 171.264 43.24C169.024 43.24 166.464 42.984 163.584 42.472L163.68 41.704C163.68 41.32 163.52 41.064 163.2 40.936C162.88 40.744 162.56 40.648 162.24 40.648C161.92 40.584 161.728 40.552 161.664 40.552L161.76 39.784C161.76 38.76 161.44 38.056 160.8 37.672C160.16 37.224 159.328 36.904 158.304 36.712C157.152 37.032 156.256 37.512 155.616 38.152C154.976 38.792 154.656 39.496 154.656 40.264C154.656 41.48 155.296 42.344 156.576 42.856L156.384 42.76C163.552 43.912 169.088 45.768 172.992 48.328C176.896 50.888 178.848 54.952 178.848 60.52C178.848 66.408 176.928 70.696 173.088 73.384C169.248 76.072 164.192 77.416 157.92 77.416C153.44 77.416 149.44 76.552 145.92 74.824C142.4 73.16 139.648 70.888 137.664 68.008C135.744 65.064 134.784 61.864 134.784 58.408V57.064C136.768 56.808 138.944 56.68 141.312 56.68L146.304 56.776C147.328 56.84 148.832 56.872 150.816 56.872C150.816 57.384 150.976 58.024 151.296 58.792H152.736C152.736 61.032 154.176 62.152 157.056 62.152C159.68 62.152 160.992 60.872 160.992 58.312C160.992 57.352 160.48 56.68 159.456 56.296C158.496 55.848 156.928 55.4 154.752 54.952C152 54.44 149.888 53.864 148.416 53.224H148.512C144.608 51.88 141.504 49.704 139.2 46.696C136.896 43.624 135.744 40.456 135.744 37.192C135.744 34.184 136.704 31.336 138.624 28.648C140.608 25.96 143.2 24.136 146.4 23.176C148.576 22.536 151.904 22.216 156.384 22.216C160.672 22.216 164.192 22.536 166.944 23.176C169.696 23.816 171.936 25.224 173.664 27.4C177.504 30.536 179.424 35.304 179.424 41.704L178.656 42.664ZM168.192 24.328C164.736 23.56 160.8 23.176 156.384 23.176C143.264 23.176 136.704 27.848 136.704 37.192C136.704 40.072 137.568 42.728 139.296 45.16C141.024 47.528 143.552 49.288 146.88 50.44C148.416 51.144 150.848 51.816 154.176 52.456C156.928 53.096 158.912 53.736 160.128 54.376C161.344 55.016 161.952 56.104 161.952 57.64C161.952 59.56 161.536 60.968 160.704 61.864C159.872 62.696 158.656 63.112 157.056 63.112C155.264 63.112 153.664 62.632 152.256 61.672C150.848 60.712 150.08 59.432 149.952 57.832L138.912 57.736C137.44 57.736 136.384 57.8 135.744 57.928V58.408C135.744 63.336 137.6 67.272 141.312 70.216C145.024 73.096 149.92 74.536 156 74.536C161.824 74.536 166.592 73.352 170.304 70.984C174.016 68.552 175.872 64.424 175.872 58.6C175.872 55.272 175.104 52.616 173.568 50.632C172.032 48.648 169.888 47.176 167.136 46.216C164.448 45.256 160.832 44.424 156.288 43.72C154.816 43.208 153.696 42.472 152.928 41.512C152.16 40.552 151.776 39.528 151.776 38.44C151.776 37.352 152.192 36.328 153.024 35.368C153.92 34.344 155.136 33.832 156.672 33.832C158.144 33.832 159.552 34.376 160.896 35.464C162.24 36.552 162.911 37.736 162.911 39.016C162.911 39.4 162.88 39.656 162.816 39.784C164.8 40.168 166.976 40.36 169.344 40.36C171.968 40.36 174.368 40.168 176.544 39.784C176.544 36.136 175.872 32.968 174.528 30.28C173.184 27.528 171.072 25.544 168.192 24.328ZM201.426 24.616C203.538 24.552 206.802 24.36 211.218 24.04L213.618 23.848C214.13 24.616 214.482 25.288 214.674 25.864L215.538 25.768C216.434 26.856 216.882 28.36 216.882 30.28C216.882 30.984 216.818 32.04 216.69 33.448C216.562 34.856 216.498 35.944 216.498 36.712C216.498 37.416 216.594 38.408 216.786 39.688H201.714C201.714 47.688 201.746 53.576 201.81 57.352C203.026 57.928 204.562 58.376 206.418 58.696C208.274 58.952 210.162 59.08 212.082 59.08C213.298 59.08 214.162 59.048 214.674 58.984L214.77 60.616V61C215.538 61 216.146 60.968 216.594 60.904C216.594 61.992 216.69 63.208 216.882 64.552C217.138 66.6 217.266 68.328 217.266 69.736C217.266 72.104 216.946 74.152 216.306 75.88C215.474 75.944 213.97 75.976 211.794 75.976C205.714 75.976 200.37 75.08 195.762 73.288C191.218 71.496 188.114 68.616 186.45 64.648C185.81 61 185.394 57.512 185.202 54.184C185.01 50.856 184.914 46.92 184.914 42.376V40.072L179.922 39.976V38.056H178.002L178.29 24.424C180.018 24.488 182.29 24.52 185.106 24.52C185.106 22.28 185.074 20.584 185.01 19.432L184.914 13.768C184.914 10.824 185.042 8.296 185.298 6.184C186.706 6.056 187.762 5.992 188.466 5.992C189.426 5.992 190.738 6.056 192.402 6.184C193.682 6.376 194.994 6.472 196.338 6.472H197.586C198.418 6.472 199.058 6.408 199.506 6.27999V8.392C199.89 8.392 200.53 8.328 201.426 8.2V24.616ZM198.546 7.336C198.098 7.4 197.362 7.432 196.338 7.432C194.738 7.432 193.266 7.336 191.922 7.144C190.13 7.016 188.818 6.952 187.986 6.952C187.218 6.952 186.61 6.984 186.162 7.048C185.97 8.84 185.874 11.048 185.874 13.672L185.97 20.104C186.034 21.384 186.066 23.176 186.066 25.48H182.802C181.266 25.48 180.082 25.448 179.25 25.384L178.962 37.096H182.61C184.082 37.096 185.17 37.064 185.874 37V42.376C185.874 46.856 185.97 50.76 186.162 54.088C186.354 57.416 186.77 60.904 187.41 64.552C188.69 67.688 191.378 69.896 195.474 71.176C199.57 72.456 204.37 73.096 209.874 73.096C211.602 73.096 212.882 73.064 213.714 73C214.162 71.592 214.386 69.864 214.386 67.816C214.386 66.088 214.162 63.496 213.714 60.04C213.266 60.104 212.594 60.136 211.698 60.136C209.01 60.136 206.45 59.848 204.018 59.272C201.586 58.632 199.89 57.608 198.93 56.2C198.866 54.216 198.834 51.144 198.834 46.984V36.808H213.714C213.65 36.616 213.618 36.104 213.618 35.272C213.618 34.632 213.682 33.544 213.81 32.008C213.938 30.472 214.002 29.288 214.002 28.456C214.002 26.664 213.714 25.448 213.138 24.808L209.01 25.096L198.642 25.576L198.546 20.2V7.336ZM259.68 27.016C259.808 28.04 259.872 28.84 259.872 29.416V30.376C259.808 32.104 259.776 34.6 259.776 37.864L259.872 48.616C259.936 51.048 259.968 54.664 259.968 59.464C259.968 63.24 259.872 67.112 259.68 71.08V71.752C259.68 73.096 259.584 74.088 259.392 74.728C259.2 75.368 258.624 75.784 257.664 75.976H256.32C255.424 75.976 254.272 75.912 252.864 75.784L250.08 75.688C249.632 75.688 248.96 75.752 248.064 75.88L245.952 75.976C244.928 75.72 244.256 75.08 243.936 74.056C243.104 73.736 242.592 73.384 242.4 73C239.072 75.048 235.776 76.072 232.512 76.072C229.12 76.072 226.112 74.6 223.488 71.656C220.928 68.712 218.944 65.032 217.536 60.616C216.192 56.136 215.52 51.752 215.52 47.464C215.52 42.6 216.352 38.44 218.016 34.984C219.68 31.464 221.952 28.808 224.832 27.016C227.776 25.224 231.072 24.328 234.72 24.328C236.512 24.328 237.888 24.456 238.848 24.712C239.872 24.968 240.8 25.608 241.632 26.632C241.696 26.312 241.76 25.8 241.824 25.096C241.888 24.392 242.048 23.944 242.304 23.752C242.56 23.56 242.976 23.464 243.552 23.464C244.128 23.464 244.64 23.528 245.088 23.656C245.6 23.72 246.08 23.752 246.528 23.752H247.392C249.056 23.752 252.224 23.912 256.896 24.232L257.76 25.096L257.856 26.152H258.816L259.68 27.016ZM246.336 24.712L243.744 24.616C243.104 24.616 242.72 25.032 242.592 25.864C242.464 26.632 242.4 27.752 242.4 29.224V29.704C241.824 28.296 241.088 27.272 240.192 26.632C239.296 25.992 238.304 25.608 237.216 25.48C236.128 25.352 234.592 25.288 232.608 25.288C229.6 25.352 226.848 26.376 224.352 28.36C221.92 30.28 220 32.904 218.592 36.232C217.184 39.56 216.48 43.304 216.48 47.464C216.48 51.24 216.992 55.112 218.016 59.08C219.04 63.048 220.608 66.408 222.72 69.16C224.896 71.848 227.52 73.192 230.592 73.192C232.768 73.192 235.008 72.68 237.312 71.656C239.68 70.568 241.664 69.224 243.264 67.624C243.264 68.008 243.2 68.552 243.072 69.256C242.944 69.896 242.88 70.472 242.88 70.984C242.88 72.072 243.264 72.776 244.032 73.096C244.544 73.096 245.248 73.032 246.144 72.904L248.16 72.808L251.328 72.904C252.736 73.032 253.76 73.096 254.4 73.096H255.552C256.064 72.968 256.384 72.712 256.512 72.328C256.704 71.88 256.8 71.272 256.8 70.504V69.16C257.056 65.384 257.184 61.192 257.184 56.584L257.088 46.024C256.96 41.288 256.896 37.704 256.896 35.272C256.896 32.264 256.928 29.992 256.992 28.456V27.496C256.992 26.984 256.928 26.216 256.8 25.192C255.008 25.064 251.872 24.904 247.392 24.712H246.336ZM237.792 38.152C239.392 38.152 240.512 38.312 241.152 38.632C241.856 38.888 242.304 39.496 242.496 40.456C242.688 41.352 242.784 42.888 242.784 45.064V50.344C242.784 52.648 242.656 54.44 242.4 55.72C242.208 57 241.664 57.992 240.768 58.696C239.936 59.4 238.624 59.752 236.832 59.752C234.208 59.752 232.128 58.76 230.592 56.776C229.056 54.792 228.288 52.328 228.288 49.384C228.288 47.272 228.48 45.576 228.864 44.296C229.248 42.568 230.208 41.128 231.744 39.976C233.28 38.76 235.296 38.152 237.792 38.152ZM231.744 46.504C231.36 47.784 231.168 49.384 231.168 51.304C231.168 56.296 233.056 58.792 236.832 58.792C238.432 58.792 239.584 58.44 240.288 57.736C240.992 57.032 241.408 56.072 241.536 54.856C241.728 53.64 241.824 51.784 241.824 49.288V46.792L241.92 43.912C241.92 42.888 241.76 42.152 241.44 41.704C241.184 41.256 240.608 41.032 239.712 41.032C237.472 41.032 235.68 41.544 234.336 42.568C232.992 43.592 232.128 44.872 231.744 46.408V46.504ZM279.225 27.4C282.361 25.48 285.753 24.52 289.401 24.52C291.449 24.52 293.433 24.872 295.353 25.576C297.273 26.28 298.713 27.368 299.673 28.84L300.825 29.704C302.489 30.984 303.321 36.36 303.321 45.832C303.321 48.328 303.257 52.072 303.129 57.064C303.001 61.928 302.937 65.48 302.937 67.72C302.937 70.28 303.001 72.904 303.129 75.592C300.825 75.912 298.137 76.072 295.065 76.072H289.305C289.241 75.624 289.209 74.984 289.209 74.152H287.385C287.193 72.168 287.097 68.296 287.097 62.536V57.736C287.097 54.024 287.033 51.144 286.905 49.096C286.777 47.048 286.425 45.32 285.849 43.912C285.337 43.72 284.665 43.624 283.833 43.624C281.913 43.624 280.569 44.264 279.801 45.544C279.097 46.824 278.745 49.288 278.745 52.936C278.745 54.664 278.809 57.064 278.937 60.136C279.065 63.336 279.129 65.672 279.129 67.144C279.129 69.896 279.001 72.296 278.745 74.344V75.4C276.505 75.976 274.649 76.264 273.177 76.264C272.281 76.264 271.577 76.232 271.065 76.168L268.761 76.072H267.705C266.745 76.072 265.817 76.136 264.921 76.264V74.152L263.001 74.344L262.905 56.2C262.777 48.136 262.713 42.024 262.713 37.864C262.713 34.472 262.777 29.896 262.905 24.136C264.441 24.328 265.881 24.424 267.225 24.424C267.737 24.424 268.569 24.328 269.721 24.136C270.937 23.944 272.569 23.848 274.617 23.848C276.345 23.848 277.241 24.232 277.305 25C277.305 25.384 277.593 25.736 278.169 26.056C278.809 26.312 279.161 26.6 279.225 26.92V27.4ZM275.193 24.712C273.401 24.712 271.385 24.872 269.145 25.192C268.121 25.32 267.481 25.384 267.225 25.384H266.073C265.241 25.384 264.505 25.32 263.865 25.192C263.737 27.176 263.673 30.088 263.673 33.928V39.784C263.673 43.688 263.737 49.352 263.865 56.776L263.961 73.288C264.729 73.224 265.753 73.192 267.033 73.192L271.641 73.288C272.985 73.288 274.393 73.096 275.865 72.712V72.328C276.121 70.216 276.249 67.848 276.249 65.224C276.249 63.56 276.185 61.128 276.057 57.928C275.929 54.728 275.865 52.296 275.865 50.632C275.865 46.792 276.345 44.2 277.305 42.856C278.265 41.448 279.801 40.744 281.913 40.744C284.217 40.744 285.689 41.448 286.329 42.856C287.033 44.2 287.449 45.736 287.577 47.464C287.705 49.128 287.801 50.28 287.865 50.92C287.993 51.88 288.057 53.416 288.057 55.528V58.888V65.992V69.064C288.057 70.984 288.121 72.36 288.249 73.192L293.817 73.288C296.121 73.288 298.265 73.128 300.249 72.808C300.121 70.376 300.057 68.36 300.057 66.76C300.057 64.52 300.121 60.904 300.249 55.912C300.377 50.664 300.441 46.824 300.441 44.392C300.441 39.976 300.281 36.424 299.961 33.736C299.641 30.984 299.065 29.224 298.233 28.456C296.057 26.472 293.081 25.48 289.305 25.48C287.257 25.48 285.433 25.8 283.833 26.44C282.233 27.08 280.729 27.816 279.321 28.648C277.913 29.416 276.985 29.928 276.537 30.184L276.633 27.976C276.633 25.8 276.153 24.712 275.193 24.712ZM347.019 13.672C347.019 19.496 347.147 27.976 347.403 39.112C347.467 41.864 347.531 45.256 347.595 49.288C347.659 53.32 347.691 57.96 347.691 63.208C347.691 69.096 347.659 73.288 347.595 75.784L341.835 75.88C340.555 75.944 338.667 75.976 336.171 75.976C335.019 75.976 334.123 75.848 333.483 75.592C332.907 75.336 332.619 74.824 332.619 74.056V73.864L331.371 73.768L331.179 73.576C329.515 74.984 327.435 75.688 324.939 75.688C322.123 75.688 319.627 75.176 317.451 74.152C315.339 73.128 313.579 71.784 312.171 70.12C307.115 66.088 304.587 57.928 304.587 45.64C304.587 40.712 305.291 36.36 306.699 32.584C308.107 28.808 310.219 26.376 313.035 25.288C315.403 24.328 318.379 23.848 321.963 23.848C325.803 23.848 328.747 24.392 330.795 25.48L330.603 15.688C330.603 14.216 330.667 12.456 330.795 10.408L331.083 6.568V5.512C331.083 5.192 331.851 4.872 333.387 4.55199C334.987 4.23199 336.715 4.07199 338.571 4.07199C341.067 4.07199 343.243 4.264 345.099 4.648V6.27999L347.019 6.568V13.672ZM344.715 72.904C344.779 70.664 344.811 67.176 344.811 62.44C344.811 57.256 344.779 52.648 344.715 48.616C344.651 44.52 344.587 41.064 344.523 38.248C344.267 26.728 344.139 17.896 344.139 11.752V5.41599C342.795 5.16 340.939 5.032 338.571 5.032C336.971 5.032 335.467 5.096 334.059 5.224C332.715 5.288 332.043 5.384 332.043 5.512V6.568L331.851 9.928C331.723 11.144 331.659 13.064 331.659 15.688V20.104C331.659 22.984 331.691 25.416 331.755 27.4C331.499 26.696 330.411 26.088 328.491 25.576C326.571 25.064 324.363 24.808 321.867 24.808C318.987 24.808 316.139 25.256 313.323 26.152C310.635 27.112 308.651 29.384 307.371 32.968C306.155 36.552 305.547 40.776 305.547 45.64C305.675 51.144 306.123 55.784 306.891 59.56C307.723 63.336 309.419 66.504 311.979 69.064C314.603 71.56 318.443 72.808 323.499 72.808C326.763 72.808 329.131 71.4 330.603 68.584C330.667 68.328 330.795 68.2 330.987 68.2C331.243 68.2 331.467 68.936 331.659 70.408C331.851 71.88 331.883 72.68 331.755 72.808C333.227 73 334.859 73.096 336.651 73.096L340.875 73C341.771 72.936 343.051 72.904 344.715 72.904ZM326.283 35.944C328.203 35.944 329.547 36.2 330.315 36.712C331.083 37.16 331.563 38.088 331.755 39.496C332.011 40.904 332.139 43.4 332.139 46.984C332.139 50.184 331.979 52.744 331.659 54.664C331.403 56.584 330.763 58.12 329.739 59.272C328.779 60.36 327.275 60.904 325.227 60.904C322.603 60.904 320.491 59.656 318.891 57.16C317.291 54.664 316.491 51.72 316.491 48.328C316.491 45.832 316.715 43.976 317.163 42.76C317.867 38.216 320.907 35.944 326.283 35.944ZM331.179 43.336C331.179 41.608 330.987 40.424 330.603 39.784C330.283 39.144 329.483 38.824 328.203 38.824C323.339 38.824 320.619 40.808 320.043 44.776L319.947 44.968C319.563 45.864 319.371 47.208 319.371 49C319.371 56.296 321.323 59.944 325.227 59.944C327.019 59.944 328.331 59.432 329.163 58.408C330.059 57.32 330.603 55.912 330.795 54.184C331.051 52.392 331.179 49.992 331.179 46.984V43.336Z"
      fill="black" />
  </g>
  <defs>
    <clipPath id="clip0_4_4">
      <rect width="394" height="80" fill="white" />
    </clipPath>
  </defs>
</svg>